  0
SECTION
  2
HEADER
  9
$ACADVER
  1
AC1024
  9
$ACADMAINTVER
 70
6
  9
$DWGCODEPAGE
  3
ANSI_1252
  9
$LASTSAVEDBY
  1
ezdxf
  9
$INSBASE
 10
0.0
 20
0.0
 30
0.0
  9
$EXTMIN
 10
1e+20
 20
1e+20
 30
1e+20
  9
$EXTMAX
 10
-1e+20
 20
-1e+20
 30
-1e+20
  9
$LIMMIN
 10
0.0
 20
0.0
  9
$LIMMAX
 10
420.0
 20
297.0
  9
$ORTHOMODE
 70
0
  9
$REGENMODE
 70
1
  9
$FILLMODE
 70
1
  9
$QTEXTMODE
 70
0
  9
$MIRRTEXT
 70
1
  9
$LTSCALE
 40
1.0
  9
$ATTMODE
 70
1
  9
$TEXTSIZE
 40
2.5
  9
$TRACEWID
 40
1.0
  9
$TEXTSTYLE
  7
Standard
  9
$CLAYER
  8
0
  9
$CELTYPE
  6
ByLayer
  9
$CECOLOR
 62
256
  9
$CELTSCALE
 40
1.0
  9
$DISPSILH
 70
0
  9
$DIMSCALE
 40
1.0
  9
$DIMASZ
 40
2.5
  9
$DIMEXO
 40
0.625
  9
$DIMDLI
 40
3.75
  9
$DIMRND
 40
0.0
  9
$DIMDLE
 40
0.0
  9
$DIMEXE
 40
1.25
  9
$DIMTP
 40
0.0
  9
$DIMTM
 40
0.0
  9
$DIMTXT
 40
2.5
  9
$DIMCEN
 40
2.5
  9
$DIMTSZ
 40
0.0
  9
$DIMTOL
 70
0
  9
$DIMLIM
 70
0
  9
$DIMTIH
 70
0
  9
$DIMTOH
 70
0
  9
$DIMSE1
 70
0
  9
$DIMSE2
 70
0
  9
$DIMTAD
 70
1
  9
$DIMZIN
 70
8
  9
$DIMBLK
  1

  9
$DIMASO
 70
1
  9
$DIMSHO
 70
1
  9
$DIMPOST
  1

  9
$DIMAPOST
  1

  9
$DIMALT
 70
0
  9
$DIMALTD
 70
3
  9
$DIMALTF
 40
0.03937007874
  9
$DIMLFAC
 40
1.0
  9
$DIMTOFL
 70
1
  9
$DIMTVP
 40
0.0
  9
$DIMTIX
 70
0
  9
$DIMSOXD
 70
0
  9
$DIMSAH
 70
0
  9
$DIMBLK1
  1

  9
$DIMBLK2
  1

  9
$DIMSTYLE
  2
ISO-25
  9
$DIMCLRD
 70
0
  9
$DIMCLRE
 70
0
  9
$DIMCLRT
 70
0
  9
$DIMTFAC
 40
1.0
  9
$DIMGAP
 40
0.625
  9
$DIMJUST
 70
0
  9
$DIMSD1
 70
0
  9
$DIMSD2
 70
0
  9
$DIMTOLJ
 70
0
  9
$DIMTZIN
 70
8
  9
$DIMALTZ
 70
0
  9
$DIMALTTZ
 70
0
  9
$DIMUPT
 70
0
  9
$DIMDEC
 70
2
  9
$DIMTDEC
 70
2
  9
$DIMALTU
 70
2
  9
$DIMALTTD
 70
3
  9
$DIMTXSTY
  7
Standard
  9
$DIMAUNIT
 70
0
  9
$DIMADEC
 70
0
  9
$DIMALTRND
 40
0.0
  9
$DIMAZIN
 70
0
  9
$DIMDSEP
 70
44
  9
$DIMATFIT
 70
3
  9
$DIMFRAC
 70
0
  9
$DIMLDRBLK
  1

  9
$DIMLUNIT
 70
2
  9
$DIMLWD
 70
-2
  9
$DIMLWE
 70
-2
  9
$DIMTMOVE
 70
0
  9
$DIMFXL
 40
1.0
  9
$DIMFXLON
 70
0
  9
$DIMJOGANG
 40
0.785398163397
  9
$DIMTFILL
 70
0
  9
$DIMTFILLCLR
 70
0
  9
$DIMARCSYM
 70
0
  9
$DIMLTYPE
  6

  9
$DIMLTEX1
  6

  9
$DIMLTEX2
  6

  9
$DIMTXTDIRECTION
 70
0
  9
$LUNITS
 70
2
  9
$LUPREC
 70
4
  9
$SKETCHINC
 40
1.0
  9
$FILLETRAD
 40
10.0
  9
$AUNITS
 70
0
  9
$AUPREC
 70
2
  9
$MENU
  1
.
  9
$ELEVATION
 40
0.0
  9
$PELEVATION
 40
0.0
  9
$THICKNESS
 40
0.0
  9
$LIMCHECK
 70
0
  9
$CHAMFERA
 40
0.0
  9
$CHAMFERB
 40
0.0
  9
$CHAMFERC
 40
0.0
  9
$CHAMFERD
 40
0.0
  9
$SKPOLY
 70
0
  9
$TDCREATE
 40
2461302.4190856484
  9
$TDUCREATE
 40
2458532.153996898
  9
$TDUPDATE
 40
2461302.4190856484
  9
$TDUUPDATE
 40
2458532.1544311
  9
$TDINDWG
 40
0.0
  9
$TDUSRTIMER
 40
0.0
  9
$USRTIMER
 70
1
  9
$ANGBASE
 50
0.0
  9
$ANGDIR
 70
0
  9
$PDMODE
 70
0
  9
$PDSIZE
 40
0.0
  9
$PLINEWID
 40
0.0
  9
$SPLFRAME
 70
0
  9
$SPLINETYPE
 70
6
  9
$SPLINESEGS
 70
8
  9
$HANDSEED
  5
38
  9
$SURFTAB1
 70
6
  9
$SURFTAB2
 70
6
  9
$SURFTYPE
 70
6
  9
$SURFU
 70
6
  9
$SURFV
 70
6
  9
$UCSBASE
  2

  9
$UCSNAME
  2

  9
$UCSORG
 10
0.0
 20
0.0
 30
0.0
  9
$UCSXDIR
 10
1.0
 20
0.0
 30
0.0
  9
$UCSYDIR
 10
0.0
 20
1.0
 30
0.0
  9
$UCSORTHOREF
  2

  9
$UCSORTHOVIEW
 70
0
  9
$UCSORGTOP
 10
0.0
 20
0.0
 30
0.0
  9
$UCSORGBOTTOM
 10
0.0
 20
0.0
 30
0.0
  9
$UCSORGLEFT
 10
0.0
 20
0.0
 30
0.0
  9
$UCSORGRIGHT
 10
0.0
 20
0.0
 30
0.0
  9
$UCSORGFRONT
 10
0.0
 20
0.0
 30
0.0
  9
$UCSORGBACK
 10
0.0
 20
0.0
 30
0.0
  9
$PUCSBASE
  2

  9
$PUCSNAME
  2

  9
$PUCSORG
 10
0.0
 20
0.0
 30
0.0
  9
$PUCSXDIR
 10
1.0
 20
0.0
 30
0.0
  9
$PUCSYDIR
 10
0.0
 20
1.0
 30
0.0
  9
$PUCSORTHOREF
  2

  9
$PUCSORTHOVIEW
 70
0
  9
$PUCSORGTOP
 10
0.0
 20
0.0
 30
0.0
  9
$PUCSORGBOTTOM
 10
0.0
 20
0.0
 30
0.0
  9
$PUCSORGLEFT
 10
0.0
 20
0.0
 30
0.0
  9
$PUCSORGRIGHT
 10
0.0
 20
0.0
 30
0.0
  9
$PUCSORGFRONT
 10
0.0
 20
0.0
 30
0.0
  9
$PUCSORGBACK
 10
0.0
 20
0.0
 30
0.0
  9
$USERI1
 70
0
  9
$USERI2
 70
0
  9
$USERI3
 70
0
  9
$USERI4
 70
0
  9
$USERI5
 70
0
  9
$USERR1
 40
0.0
  9
$USERR2
 40
0.0
  9
$USERR3
 40
0.0
  9
$USERR4
 40
0.0
  9
$USERR5
 40
0.0
  9
$WORLDVIEW
 70
1
  9
$SHADEDGE
 70
3
  9
$SHADEDIF
 70
70
  9
$TILEMODE
 70
1
  9
$MAXACTVP
 70
64
  9
$PINSBASE
 10
0.0
 20
0.0
 30
0.0
  9
$PLIMCHECK
 70
0
  9
$PEXTMIN
 10
1e+20
 20
1e+20
 30
1e+20
  9
$PEXTMAX
 10
-1e+20
 20
-1e+20
 30
-1e+20
  9
$PLIMMIN
 10
0.0
 20
0.0
  9
$PLIMMAX
 10
420.0
 20
297.0
  9
$UNITMODE
 70
0
  9
$VISRETAIN
 70
1
  9
$PLINEGEN
 70
0
  9
$PSLTSCALE
 70
1
  9
$TREEDEPTH
 70
3020
  9
$CMLSTYLE
  2
Standard
  9
$CMLJUST
 70
0
  9
$CMLSCALE
 40
20.0
  9
$PROXYGRAPHICS
 70
1
  9
$MEASUREMENT
 70
1
  9
$CELWEIGHT
370
-1
  9
$ENDCAPS
280
0
  9
$JOINSTYLE
280
0
  9
$LWDISPLAY
290
0
  9
$INSUNITS
 70
4
  9
$HYPERLINKBASE
  1

  9
$STYLESHEET
  1

  9
$XEDIT
290
1
  9
$CEPSNTYPE
380
0
  9
$PSTYLEMODE
290
1
  9
$FINGERPRINTGUID
  2
{F6389186-60BD-434B-91D9-C8C834F1AAF9}
  9
$VERSIONGUID
  2
{23E96EB7-8246-41F8-A005-C040D655631B}
  9
$EXTNAMES
290
1
  9
$PSVPSCALE
 40
0.0
  9
$OLESTARTUP
290
0
  9
$SORTENTS
280
127
  9
$INDEXCTL
280
0
  9
$HIDETEXT
280
1
  9
$XCLIPFRAME
280
1
  9
$HALOGAP
280
0
  9
$OBSCOLOR
 70
257
  9
$OBSLTYPE
280
0
  9
$INTERSECTIONDISPLAY
280
0
  9
$INTERSECTIONCOLOR
 70
257
  9
$DIMASSOC
280
2
  9
$PROJECTNAME
  1

  9
$CAMERADISPLAY
290
0
  9
$LENSLENGTH
 40
50.0
  9
$CAMERAHEIGHT
 40
0.0
  9
$STEPSPERSEC
 40
24.0
  9
$STEPSIZE
 40
100.0
  9
$3DDWFPREC
 40
2.0
  9
$PSOLWIDTH
 40
0.005
  9
$PSOLHEIGHT
 40
0.08
  9
$LOFTANG1
 40
1.570796326795
  9
$LOFTANG2
 40
1.570796326795
  9
$LOFTMAG1
 40
0.0
  9
$LOFTMAG2
 40
0.0
  9
$LOFTPARAM
 70
7
  9
$LOFTNORMALS
280
1
  9
$LATITUDE
 40
37.795
  9
$LONGITUDE
 40
-122.394
  9
$NORTHDIRECTION
 40
0.0
  9
$TIMEZONE
 70
-8000
  9
$LIGHTGLYPHDISPLAY
280
1
  9
$TILEMODELIGHTSYNCH
280
1
  9
$CMATERIAL
347
20
  9
$SOLIDHIST
280
0
  9
$SHOWHIST
280
1
  9
$DWFFRAME
280
2
  9
$DGNFRAME
280
2
  9
$REALWORLDSCALE
290
1
  9
$INTERFERECOLOR
 62
256
  9
$CSHADOW
280
0
  9
$SHADOWPLANELOCATION
 40
0.0
  0
ENDSEC
  0
SECTION
  2
CLASSES
  0
CLASS
  1
ACDBDICTIONARYWDFLT
  2
AcDbDictionaryWithDefault
  3
ObjectDBX Classes
 90
0
 91
0
280
0
281
0
  0
CLASS
  1
SUN
  2
AcDbSun
  3
SCENEOE
 90
1153
 91
0
280
0
281
0
  0
CLASS
  1
VISUALSTYLE
  2
AcDbVisualStyle
  3
ObjectDBX Classes
 90
4095
 91
0
280
0
281
0
  0
CLASS
  1
MATERIAL
  2
AcDbMaterial
  3
ObjectDBX Classes
 90
1153
 91
0
280
0
281
0
  0
CLASS
  1
SCALE
  2
AcDbScale
  3
ObjectDBX Classes
 90
1153
 91
0
280
0
281
0
  0
CLASS
  1
TABLESTYLE
  2
AcDbTableStyle
  3
ObjectDBX Classes
 90
4095
 91
0
280
0
281
0
  0
CLASS
  1
MLEADERSTYLE
  2
AcDbMLeaderStyle
  3
ACDB_MLEADERSTYLE_CLASS
 90
4095
 91
0
280
0
281
0
  0
CLASS
  1
DICTIONARYVAR
  2
AcDbDictionaryVar
  3
ObjectDBX Classes
 90
0
 91
0
280
0
281
0
  0
CLASS
  1
CELLSTYLEMAP
  2
AcDbCellStyleMap
  3
ObjectDBX Classes
 90
1152
 91
0
280
0
281
0
  0
CLASS
  1
MENTALRAYRENDERSETTINGS
  2
AcDbMentalRayRenderSettings
  3
SCENEOE
 90
1024
 91
0
280
0
281
0
  0
CLASS
  1
ACDBDETAILVIEWSTYLE
  2
AcDbDetailViewStyle
  3
ObjectDBX Classes
 90
1025
 91
0
280
0
281
0
  0
CLASS
  1
ACDBSECTIONVIEWSTYLE
  2
AcDbSectionViewStyle
  3
ObjectDBX Classes
 90
1025
 91
0
280
0
281
0
  0
CLASS
  1
RASTERVARIABLES
  2
AcDbRasterVariables
  3
ISM
 90
0
 91
0
280
0
281
0
  0
CLASS
  1
ACDBPLACEHOLDER
  2
AcDbPlaceHolder
  3
ObjectDBX Classes
 90
0
 91
0
280
0
281
0
  0
CLASS
  1
LAYOUT
  2
AcDbLayout
  3
ObjectDBX Classes
 90
0
 91
0
280
0
281
0
  0
ENDSEC
  0
SECTION
  2
TABLES
  0
TABLE
  2
VPORT
  5
8
330
0
100
AcDbSymbolTable
 70
1
  0
VPORT
  5
23
330
8
100
AcDbSymbolTableRecord
100
AcDbViewportTableRecord
  2
*Active
 70
0
 10
0.0
 20
0.0
 11
1.0
 21
1.0
 12
0.0
 22
0.0
 13
0.0
 23
0.0
 14
0.5
 24
0.5
 15
0.5
 25
0.5
 16
0.0
 26
0.0
 36
1.0
 17
0.0
 27
0.0
 37
0.0
 40
1000.0
 41
1.34
 42
50.0
 43
0.0
 44
0.0
 50
0.0
 51
0.0
 71
0
 72
1000
 73
1
 74
3
 75
0
 76
0
 77
0
 78
0
281
0
 65
0
146
0.0
  0
ENDTAB
  0
TABLE
  2
LTYPE
  5
2
330
0
100
AcDbSymbolTable
 70
3
  0
LTYPE
  5
24
330
2
100
AcDbSymbolTableRecord
100
AcDbLinetypeTableRecord
  2
ByBlock
 70
0
  3

 72
65
 73
0
 40
0.0
  0
LTYPE
  5
25
330
2
100
AcDbSymbolTableRecord
100
AcDbLinetypeTableRecord
  2
ByLayer
 70
0
  3

 72
65
 73
0
 40
0.0
  0
LTYPE
  5
26
330
2
100
AcDbSymbolTableRecord
100
AcDbLinetypeTableRecord
  2
Continuous
 70
0
  3

 72
65
 73
0
 40
0.0
  0
ENDTAB
  0
TABLE
  2
LAYER
  5
1
330
0
100
AcDbSymbolTable
 70
2
  0
LAYER
  5
27
330
1
100
AcDbSymbolTableRecord
100
AcDbLayerTableRecord
  2
0
 70
0
 62
7
  6
Continuous
370
-3
390
13
347
21
  0
LAYER
  5
28
330
1
100
AcDbSymbolTableRecord
100
AcDbLayerTableRecord
  2
Defpoints
 70
0
 62
7
  6
Continuous
290
0
370
-3
390
13
347
21
  0
ENDTAB
  0
TABLE
  2
STYLE
  5
5
330
0
100
AcDbSymbolTable
 70
1
  0
STYLE
  5
29
330
5
100
AcDbSymbolTableRecord
100
AcDbTextStyleTableRecord
  2
Standard
 70
0
 40
0.0
 41
1.0
 50
0.0
 71
0
 42
2.5
  3
txt
  4

  0
ENDTAB
  0
TABLE
  2
VIEW
  5
7
330
0
100
AcDbSymbolTable
 70
0
  0
ENDTAB
  0
TABLE
  2
UCS
  5
6
330
0
100
AcDbSymbolTable
 70
0
  0
ENDTAB
  0
TABLE
  2
APPID
  5
3
330
0
100
AcDbSymbolTable
 70
3
  0
APPID
  5
2A
330
3
100
AcDbSymbolTableRecord
100
AcDbRegAppTableRecord
  2
ACAD
 70
0
  0
APPID
  5
35
330
3
100
AcDbSymbolTableRecord
100
AcDbRegAppTableRecord
  2
HATCHBACKGROUNDCOLOR
 70
0
  0
APPID
  5
36
330
3
100
AcDbSymbolTableRecord
100
AcDbRegAppTableRecord
  2
EZDXF
 70
0
  0
ENDTAB
  0
TABLE
  2
DIMSTYLE
  5
4
330
0
100
AcDbSymbolTable
 70
1
100
AcDbDimStyleTable
  0
DIMSTYLE
105
2B
330
4
100
AcDbSymbolTableRecord
100
AcDbDimStyleTableRecord
  2
Standard
 70
0
 40
1.0
 41
2.5
 42
0.625
 43
3.75
 44
1.25
 45
0.0
 46
0.0
 47
0.0
 48
0.0
 49
2.5
140
2.5
141
2.5
142
0.0
143
0.03937007874
144
1.0
145
0.0
146
1.0
147
0.625
148
0.0
 69
0
 70
0
 71
0
 72
0
 73
0
 74
0
 75
0
 76
0
 77
1
 78
8
 79
3
170
0
171
3
172
1
173
0
174
0
175
0
176
0
177
0
178
0
179
2
271
2
272
2
273
2
274
3
275
0
276
0
277
2
278
44
279
0
280
0
281
0
282
0
283
0
284
8
285
0
286
0
288
0
289
3
290
0
371
-2
372
-2
  0
ENDTAB
  0
TABLE
  2
BLOCK_RECORD
  5
9
330
0
100
AcDbSymbolTable
 70
2
  0
BLOCK_RECORD
  5
17
330
9
100
AcDbSymbolTableRecord
100
AcDbBlockTableRecord
  2
*Model_Space
340
1A
 70
0
280
1
281
0
  0
BLOCK_RECORD
  5
1B
330
9
100
AcDbSymbolTableRecord
100
AcDbBlockTableRecord
  2
*Paper_Space
340
1E
 70
0
280
1
281
0
  0
ENDTAB
  0
ENDSEC
  0
SECTION
  2
BLOCKS
  0
BLOCK
  5
18
330
17
100
AcDbEntity
  8
0
100
AcDbBlockBegin
  2
*Model_Space
 70
0
 10
0.0
 20
0.0
 30
0.0
  3
*Model_Space
  1

  0
ENDBLK
  5
19
330
17
100
AcDbEntity
  8
0
100
AcDbBlockEnd
  0
BLOCK
  5
1C
330
1B
100
AcDbEntity
  8
0
100
AcDbBlockBegin
  2
*Paper_Space
 70
0
 10
0.0
 20
0.0
 30
0.0
  3
*Paper_Space
  1

  0
ENDBLK
  5
1D
330
1B
100
AcDbEntity
  8
0
100
AcDbBlockEnd
  0
ENDSEC
  0
SECTION
  2
ENTITIES
  0
LWPOLYLINE
  5
2F
330
17
100
AcDbEntity
  8
0
100
AcDbPolyline
 90
503
 70
1
 10
18.7940629358129
 20
9.14001163128817
 10
23.32027064631327
 20
0.6713650492743868
 10
23.445534422193983
 20
0.4805198667866988
 10
23.602940150508832
 20
0.31518283548298387
 10
23.787402042589846
 20
0.18069600491379623
 10
23.992960123470045
 20
0.08140465276516218
 10
24.212972799037562
 20
0.020516888671910927
 10
24.4403314463459
 20
-2.626920577372987e-15
 10
43.4361691128551
 20
6.59916565837193e-13
 10
43.684941048479686
 20
0.004057658840006084
 10
43.933448320550085
 20
0.01622631849486833
 10
44.1814265470824
 20
0.03649303296831885
 10
44.4286119089339
 20
0.06483624090268059
 10
44.674741430474896
 20
0.10122578851822173
 10
44.9195532593634
 20
0.1456229616931788
 10
45.16278694512465
 20
0.19798052715093828
 10
45.40418371623919
 20
0.25824278271058887
 10
45.64348675544485
 20
0.3263456165473775
 10
45.88044147295949
 20
0.40221657540000866
 10
46.11479577733414
 20
0.4857749416522461
 10
46.346300343648
 20
0.5769318192067816
 10
46.57470887876042
 20
0.6755902280600559
 10
46.799778383337255
 20
0.7816452074773554
 10
47.021269410373044
 20
0.8949839276584717
 10
47.238946319934016
 20
1.0154858097751065
 10
47.45257752985069
 20
1.1430226542522952
 10
47.66193576209367
 20
1.2774587771574248
 10
47.866798284570145
 20
1.4186511545516662
 10
48.066947148084274
 20
1.5664495746503464
 10
48.26216941820897
 20
1.7206967976302954
 10
48.45225740182265
 20
1.8812287229141713
 10
48.63700886806986
 20
2.0478745637538625
 10
48.8162272635107
 20
2.2204570289271155
 10
48.98972192123011
 20
2.3987925113541664
 10
49.157308263684676
 20
2.5826912834337117
 10
49.31880799907104
 20
2.77195769889033
 10
49.47404931100701
 20
2.9663904009187325
 10
49.622867041323616
 20
3.165782536403249
 10
49.76510286577366
 20
3.3699219759848216
 10
49.900605462469734
 20
3.5785915397412227
 10
50.029230672872586
 20
3.791569228240478
 10
50.15084165515856
 20
4.008628458721714
 10
50.26530902980291
 20
4.2295383061520475
 10
50.37251101722411
 20
4.454063748903218
 10
50.47233356734278
 20
4.681965918786412
 10
50.56467048091728
 20
4.913002355179458
 10
50.649423522527
 20
5.146927262975884
 10
50.7265025250831
 20
5.38349177408146
 10
50.79582548575548
 20
5.622444212180088
 10
50.857318653213966
 20
5.863530360487259
 10
50.910916606090936
 20
6.106493732206258
 10
50.95656232258177
 20
6.351075843399414
 10
50.994207241109244
 20
6.597016487984082
 10
51.02381131198726
 20
6.844054014560744
 10
51.04534304002888
 20
7.091925604778754
 10
51.058779518053434
 20
7.340367552943627
 10
51.06410645125706
 20
7.58911554656832
 10
51.06131817242061
 20
7.837904947570037
 10
51.05041764793893
 20
8.086471073813511
 10
51.03141647466495
 20
8.334549480701089
 10
51.004334867572055
 20
8.581876242510099
 10
50.969201638247704
 20
8.828188233178247
 10
50.926054164241435
 20
9.07322340623824
 10
50.87493834929956
 20
9.316721073603851
 10
50.815908574529125
 20
9.55842218291081
 10
50.749027640542884
 20
9.798069593117543
 10
50.67436670064699
 20
10.035408348072405
 10
50.59200518514238
 20
10.270185947756548
 10
50.50203071682047
 20
10.50215261691368
 10
50.40453901774297
 20
10.73106157078103
 10
50.299633807405066
 20
10.95666927763881
 10
50.18742669239033
 20
11.178735717898778
 10
50.06803704763467
 20
11.397024639456372
 10
49.94159188942564
 20
11.611303809034657
 10
49.808225740272384
 20
11.821345259252698
 10
49.668080485789766
 20
12.026925531155577
 10
49.521305223749046
 20
12.227825911948006
 10
49.36805610545573
 20
12.423832667678482
 10
49.20849616962327
 20
12.614737270626666
 10
49.042795168919376
 20
12.80033662115191
 10
48.87112938936953
 20
12.980433263766948
 10
48.693681462809735
 20
13.154835597206889
 10
48.51064017258814
 20
13.32335807827002
 10
48.322200252722105
 20
13.485821419213597
 10
48.12856218072459
 20
13.642052778494477
 10
47.929931964320055
 20
13.791885944651854
 10
47.72652092227685
 20
13.935161513136384
 10
47.51854545958946
 20
14.07172705589748
 10
47.30622683724942
 20
14.201437283548549
 10
47.089790936850136
 20
14.324154199937482
 10
46.869468020275875
 20
14.439747248958078
 10
46.64549248473077
 20
14.548093453446045
 10
46.4181026133682
 20
14.649077546012027
 10
46.18754032178604
 20
14.742592091672307
 10
45.954050900657464
 20
14.828537602146728
 10
45.71788275477102
 20
14.906822641702348
 10
45.479287138757684
 20
14.977363924430094
 10
45.23851788978597
 20
15.040086402851014
 10
44.99583115750966
 20
15.094923347757778
 10
44.75148513155514
 20
15.14181641920661
 10
44.50573976683869
 20
15.180715728583952
 10
44.258856507005376
 20
15.211579891682025
 10
44.01109800628451
 20
15.234376072726635
 10
43.762727850056926
 20
15.249080019310522
 10
43.5140102744316
 20
15.255676088194308
 10
43.307655377209116
 20
15.251792143111444
 10
43.10187338243689
 20
15.235942876103968
 10
42.89735750399869
 20
15.208181678295567
 10
42.69479669063629
 20
15.168602068304198
 10
42.49487330510101
 20
15.117337377207681
 10
42.28049277559307
 20
15.10296301226566
 10
42.07934552334549
 20
15.178497221157008
 10
41.92741522057546
 20
15.330427523927064
 10
41.85188101168415
 20
15.531574776174656
 10
41.866255376626206
 20
15.745955305682598
 10
41.91752006772271
 20
15.945878691217859
 10
41.957099677714076
 20
16.148439504580246
 10
41.98486087552247
 20
16.352955383018436
 10
42.00071014252995
 20
16.55873737779064
 10
42.00459408761398
 20
16.765092275013114
 10
41.99805836524616
 20
17.012398462122803
 10
41.98350649887107
 20
17.259362647855475
 10
41.96095379465179
 20
17.505725066625057
 10
41.93042397431302
 20
17.75122658580505
 10
41.89194915018981
 20
17.995608978293316
 10
41.845569791450615
 20
18.238615194124396
 10
41.791334681530444
 20
18.479989630843672
 10
41.72930086681873
 20
18.719478402358984
 10
41.65953359665593
 20
18.956829605986925
 10
41.58210625470198
 20
19.191793587412903
 10
41.497100281748814
 20
19.424123203286314
 10
41.40460509005803
 20
19.653574081174558
 10
41.304717969313984
 20
19.879904876602545
 10
41.19754398429111
 20
20.10287752690728
 10
41.08319586434304
 20
20.32225750164049
 10
40.96179388482999
 20
20.53781404925599
 10
40.83346574060885
 20
20.749320439822235
 10
40.698346411719335
 20
20.956554203504815
 10
40.556578021407184
 20
21.159297364568026
 10
40.408309686633984
 20
21.357336670649374
 10
40.25369736123072
 20
21.550463817065914
 10
40.09290367186004
 20
21.738475665916376
 10
39.9260977469599
 20
21.921174459748755
 10
39.75345503884824
 20
22.09836802956853
 10
39.575157139176206
 20
22.269869996968733
 10
39.391391587923586
 20
22.43549997016931
 10
39.202351676137766
 20
22.5950837337595
 10
39.008236242623354
 20
22.74845343194371
 10
38.80924946479664
 20
22.89544774509814
 10
38.60560064392456
 20
23.035912059452393
 10
38.39750398497433
 20
23.169698629717693
 10
38.18517837130514
 20
23.296666734490522
 10
37.968847134438974
 20
23.41668282426833
 10
37.74873781915268
 20
23.529620661921616
 10
37.5250819441384
 20
23.635361455474513
 10
37.29811475848409
 20
23.733793983054397
 10
37.06807499423031
 20
23.824814709878922
 10
36.83520461526346
 20
23.908327897157555
 10
36.5997485628097
 20
23.98424570279296
 10
36.36195449779721
 20
24.052488273776437
 10
36.122072540357685
 20
24.112983830180074
 10
35.88035500674129
 20
24.165668740657416
 10
35.637056143921505
 20
24.210487589373145
 10
35.392431862169325
 20
24.247393234291373
 10
35.14673946587781
 20
24.276346856761325
 10
34.900237382920324
 20
24.297318002348128
 10
34.653184892827056
 20
24.310284612865864
 10
34.40584185406571
 20
24.31523304957914
 10
34.15846843071326
 20
24.312158107548786
 10
33.91132481880626
 20
24.301063021106607
 10
33.66467097265751
 20
24.281959460453372
 10
33.41876633142705
 20
24.254867519383716
 10
33.173869546234926
 20
24.219815694150764
 10
32.93023820810286
 20
24.176840853492784
 10
32.688128577011014
 20
24.125988199853353
 10
32.447795312354764
 20
24.06731122183583
 10
32.209491205084994
 20
24.00087163794219
 10
31.973466911813745
 20
23.926739331655323
 10
31.73997069116479
 20
23.844992277933155
 10
31.50924814264651
 20
23.755716461191835
 10
31.281541948321728
 20
23.659005784864316
 10
31.057091617546213
 20
23.554961972629457
 10
30.836133235044343
 20
23.44369446141545
 10
30.618899212586918
 20
23.32532028629027
 10
30.405618044532304
 20
23.199963957360055
 10
30.19651406748808
 20
23.067757328805016
 10
29.99180722434591
 20
22.928839460190613
 10
29.791712832937918
 20
22.783356470199806
 10
29.59644135955783
 20
22.6314613829403
 10
29.40619819758517
 20
22.473313966988464
 10
29.221183451445274
 20
22.309080567339088
 10
29.04159172613248
 20
22.138933930437926
 10
28.867611922517753
 20
21.96305302248092
 10
28.69942703865611
 20
21.78162284117128
 10
28.53721397730291
 20
21.59483422113242
 10
28.38114335984126
 20
21.402883633181403
 10
28.23137934681653
 20
21.205972977674058
 10
28.08795525372616
 20
21.004256619767666
 10
27.99674397259239
 20
21.21043359859809
 10
27.899431892271643
 20
21.413802237845527
 10
27.796105370108446
 20
21.614182062736568
 10
27.686849374818202
 20
21.8113913928468
 10
27.562386028123353
 20
22.020331054820204
 10
27.43107228250683
 20
22.225034326408263
 10
27.29295292909711
 20
22.425208315263664
 10
27.148107468723534
 20
22.620570187836627
 10
26.996650161758286
 20
22.810851763428396
 10
26.838729154921953
 20
22.995803960493216
 10
26.674524684671788
 20
23.175200891871068
 10
26.504246415319358
 20
23.348843418050418
 10
26.328130025367848
 20
23.516561997257377
 10
26.146433201370062
 20
23.67821871526889
 10
25.95943122985183
 20
23.83370843136562
 10
25.7674123916631
 20
23.982959033554273
 10
25.57067335921429
 20
24.125930849760422
 10
25.369514777534597
 20
24.262615306731668
 10
25.16423717884607
 20
24.393032961233793
 10
24.955137342193776
 20
24.517231047168824
 10
24.742505169442637
 20
24.63528068786052
 10
24.526621110788
 20
24.747273916836303
 10
24.30604307733954
 20
24.853798145905376
 10
24.082447946396965
 20
24.95383557768499
 10
23.85608951272796
 20
25.0474535709986
 10
23.62721445076261
 20
25.13473976261931
 10
23.396060419517205
 20
25.215799575374422
 10
23.162854569989772
 20
25.290753672262902
 10
22.92781243900074
 20
25.359735437975143
 10
22.691137200115826
 20
25.422888554249436
 10
22.453019233338587
 20
25.480364719871968
 10
22.213635970298675
 20
25.532321551075277
 10
21.973151970050278
 20
25.578920684490395
 10
21.731719181589607
 20
25.620326093182708
 10
21.489477352058564
 20
25.656702616870867
 10
21.246554543651754
 20
25.6882147001822
 10
21.003067726925522
 20
25.715025327569595
 10
20.759123423083626
 20
25.737295140043877
 10
20.5148183725682
 20
25.75518171686173
 10
20.270240211706078
 20
25.76883900444893
 10
20.0254681431261
 20
25.77841687484972
 10
19.78057358911465
 20
25.78406079662915
 10
19.5356208200058
 20
25.78591160221
 10
10.635280604826999
 20
25.7859116022099
 10
10.387515895866516
 20
25.761508908322003
 10
10.149272645723334
 20
25.689238608499235
 10
9.929706408892105
 20
25.571878009834133
 10
9.737254992720084
 20
25.413937214316817
 10
9.579314197202766
 20
25.221485798144794
 10
9.461953598537665
 20
25.001919561313564
 10
9.389683298714896
 20
24.763676311170386
 10
9.36528060482698
 20
24.5159116022099
 10
9.365280603159075
 20
21.11923706470596
 10
9.225265496233595
 20
21.311197009615327
 10
9.081024484590582
 20
21.500002015903682
 10
8.932586217266568
 20
21.68552515607848
 10
8.779989240410853
 20
21.86764291630166
 10
8.623282011338885
 20
22.04623610847484
 10
8.4625227946233
 20
22.22119076956757
 10
8.297779437717825
 20
22.3923990299868
 10
8.129129026958624
 20
22.559759932784885
 10
7.956657428246903
 20
22.72318018622686
 10
7.780458720110011
 20
22.88257483368178
 10
7.600634529987411
 20
23.037867826917182
 10
7.417293287325787
 20
23.188992491563035
 10
7.230549409253836
 20
23.335891876635802
 10
7.040522436137779
 20
23.478518983410734
 10
6.847336135134705
 20
23.616836872421967
 10
6.651117589951464
 20
23.75081865077714
 10
6.451996294417576
 20
23.88044734513099
 10
6.250103266267391
 20
24.00571566843172
 10
6.045570195807438
 20
24.126625690831116
 10
5.8385286420471
 20
24.2431884268683
 10
5.619766686741613
 20
24.360164022149153
 10
5.398435935378865
 20
24.47220342271548
 10
5.174670655108829
 20
24.579298148534818
 10
4.948606098620699
 20
24.681450266174803
 10
4.720377634886132
 20
24.77867202335786
 10
4.490119928844678
 20
24.870985390212905
 10
4.257966181137351
 20
24.958421521283174
 10
4.024047436475882
 20
25.041020153205526
 10
3.7884919666813923
 20
25.118828953237074
 10
3.5514247319563754
 20
25.191902833527127
 10
3.3129669216649713
 20
25.260303245296907
 10
3.0732355738616373
 20
25.324097465989315
 10
2.8323432710752887
 20
25.383357891084188
 10
2.590397908448481
 20
25.438161340737103
 10
2.347502529252656
 20
25.488588389779615
 10
2.1037552220367854
 20
25.534722727991923
 10
1.8592490731917253
 20
25.576650555988103
 10
1.6140721684911967
 20
25.614460020586122
 10
1.3683076371632867
 20
25.64824069220411
 10
1.1220337322127931
 20
25.678083085650567
 10
0.875323941015072
 20
25.704078224669583
 10
0.6282471205995476
 20
25.726317249762424
 10
0.38086765250318033
 20
25.744891068128297
 10
0.13324561257317746
 20
25.759890044037885
 10
-0.11456304838895726
 20
25.771403727558905
 10
-0.3625063167412898
 20
25.779520619277378
 10
-0.6105359239819403
 20
25.784327968484448
 10
-0.8586071532422288
 20
25.78591160221
 10
-8.800630997382969
 20
25.7859116022099
 10
-9.048395706343452
 20
25.761508908322003
 10
-9.286638956486634
 20
25.689238608499235
 10
-9.506205193317864
 20
25.571878009834133
 10
-9.698656609489884
 20
25.413937214316817
 10
-9.856597405007202
 20
25.221485798144794
 10
-9.973958003672303
 20
25.001919561313564
 10
-10.046228303495072
 20
24.763676311170386
 10
-10.070630997382999
 20
24.5159116022099
 10
-10.070630999050898
 20
21.119237064705963
 10
-10.210646105976377
 20
21.311197009615327
 10
-10.354887117619384
 20
21.50000201590368
 10
-10.503325384943397
 20
21.685525156078477
 10
-10.65592236179911
 20
21.867642916301655
 10
-10.812629590871072
 20
22.046236108474837
 10
-10.973388807586653
 20
22.221190769567567
 10
-11.138132164492125
 20
22.392399029986795
 10
-11.30678257525132
 20
22.55975993278488
 10
-11.479254173963039
 20
22.723180186226855
 10
-11.655452882099928
 20
22.882574833681776
 10
-11.835277072222524
 20
23.03786782691718
 10
-12.018618314884144
 20
23.188992491563027
 10
-12.205362192956091
 20
23.335891876635795
 10
-12.395389166072144
 20
23.47851898341073
 10
-12.588575467075215
 20
23.616836872421963
 10
-12.784794012258452
 20
23.75081865077714
 10
-12.983915307792337
 20
23.88044734513099
 10
-13.185808335942516
 20
24.005715668431716
 10
-13.390341406402467
 20
24.126625690831116
 10
-13.5973829601628
 20
24.2431884268683
 10
-13.816144915468286
 20
24.360164022149153
 10
-14.037475666831034
 20
24.472203422715477
 10
-14.261240947101069
 20
24.579298148534814
 10
-14.4873055035892
 20
24.6814502661748
 10
-14.715533967323763
 20
24.778672023357853
 10
-14.94579167336522
 20
24.8709853902129
 10
-15.177945421072545
 20
24.958421521283167
 10
-15.411864165734013
 20
25.04102015320552
 10
-15.647419635528502
 20
25.118828953237067
 10
-15.884486870253516
 20
25.19190283352712
 10
-16.12294468054492
 20
25.2603032452969
 10
-16.362676028348254
 20
25.324097465989308
 10
-16.6035683311346
 20
25.38335789108418
 10
-16.845513693761408
 20
25.4381613407371
 10
-17.08840907295723
 20
25.48858838977961
 10
-17.3321563801731
 20
25.53472272799192
 10
-17.576662529018158
 20
25.5766505559881
 10
-17.821839433718687
 20
25.61446002058612
 10
-18.067603965046597
 20
25.648240692204105
 10
-18.31387786999709
 20
25.678083085650567
 10
-18.56058766119481
 20
25.704078224669583
 10
-18.80766448161033
 20
25.72631724976242
 10
-19.055043949706697
 20
25.744891068128297
 10
-19.3026659896367
 20
25.759890044037885
 10
-19.550474650598833
 20
25.771403727558905
 10
-19.798417918951166
 20
25.779520619277378
 10
-20.046447526191816
 20
25.784327968484448
 10
-20.294518755452103
 20
25.78591160221
 10
-28.236542599592898
 20
25.7859116022099
 10
-28.48430730855338
 20
25.761508908322003
 10
-28.72255055869656
 20
25.689238608499235
 10
-28.94211679552779
 20
25.571878009834133
 10
-29.134568211699815
 20
25.413937214316817
 10
-29.29250900721713
 20
25.221485798144794
 10
-29.409869605882232
 20
25.001919561313564
 10
-29.482139905705
 20
24.763676311170386
 10
-29.5065425995929
 20
24.5159116022099
 10
-29.506542599592898
 20
1.2700000000000002
 10
-29.482139905705
 20
1.022235291039517
 10
-29.409869605882232
 20
0.7839920408963361
 10
-29.29250900721713
 20
0.5644258040651056
 10
-29.134568211699815
 20
0.3719743878930847
 10
-28.94211679552779
 20
0.21403359237576747
 10
-28.72255055869656
 20
0.09667299371066607
 10
-28.484307308553383
 20
0.024402693887897398
 10
-28.236542599592898
 20
0.0
 10
-20.3665309683047
 20
0.0
 10
-20.125100554464776
 20
0.0014754402920107434
 10
-19.883707235767563
 20
0.005952992833159865
 10
-19.64239079462779
 20
0.013510581370469898
 10
-19.401194096499125
 20
0.024227473087118367
 10
-19.160163257831687
 20
0.03818414512856472
 10
-18.91934781394398
 20
0.05546212644988646
 10
-18.678800884857317
 20
0.07614381281119376
 10
-18.438579336787576
 20
0.10031225277968225
 10
-18.19874393661026
 20
0.12805090268654684
 10
-17.959359496215928
 20
0.15944334864666065
 10
-17.720495003262688
 20
0.19457299399139405
 10
-17.48222373442146
 20
0.2335227108029585
 10
-17.244623346812975
 20
0.27637445468445354
 10
-17.007775942970945
 20
0.3232088424641295
 10
-16.771768104355303
 20
0.3741046932234764
 10
-16.53669088820825
 20
0.4291385338609546
 10
-16.302639782421945
 20
0.4883840713556653
 10
-16.069714613100945
 20
0.5519116349702708
 10
-15.83801939968545
 20
0.6197875928140761
 10
-15.607662152883595
 20
0.6920737484498246
 10
-15.378754611268896
 20
0.7688267245353017
 10
-15.151411913253094
 20
0.8500973417963267
 10
-14.925752202256346
 20
0.9359300028737427
 10
-14.701896164265012
 20
1.026362091707226
 10
-14.479966498576026
 20
1.1214234000405643
 10
-14.260087324342262
 20
1.2211355932814494
 10
-14.042383527503123
 20
1.3255117282514712
 10
-13.826980054737884
 20
1.4345558352550323
 10
-13.6140011631288
 20
1.54826257633033
 10
-13.405858219257428
 20
1.6651846110435757
 10
-13.200238200132667
 20
1.786488307041509
 10
-12.99727474555688
 20
1.91218615842135
 10
-12.797101753033203
 20
2.0422816060192606
 10
-12.59985256048346
 20
2.176768600710401
 10
-12.405659077977523
 20
2.3156312509375785
 10
-12.214650881159649
 20
2.4588435672855504
 10
-12.02695428130247
 20
2.606369315223465
 10
-11.842691388790278
 20
2.758161984850005
 10
-11.661979188192216
 20
2.9141648836564484
 10
-11.484928643814879
 20
3.074311355076115
 10
-11.311643854636534
 20
3.2385251220560662
 10
-11.142221276777235
 20
3.4067207512393898
 10
-10.976749030154844
 20
3.578804229771572
 10
-10.81530630377203
 20
3.75467364343235
 10
-10.65796287127742
 20
3.9342199419213095
 10
-10.504778725190137
 20
4.117327774839557
 10
-10.35580383464466
 20
4.303876380318988
 10
-10.211078027890597
 20
4.4937405074145635
 10
-10.070630997382999
 20
4.6867913533919605
 10
-10.070630997382969
 20
1.2700000000000002
 10
-10.046228303495072
 20
1.022235291039517
 10
-9.973958003672303
 20
0.7839920408963361
 10
-9.856597405007202
 20
0.5644258040651056
 10
-9.698656609489884
 20
0.3719743878930847
 10
-9.506205193317864
 20
0.21403359237576747
 10
-9.286638956486634
 20
0.09667299371066607
 10
-9.048395706343452
 20
0.024402693887897398
 10
-8.800630997382969
 20
0.0
 10
-0.930619366094801
 20
0.0
 10
-0.6891889522548755
 20
0.0014754402920109655
 10
-0.44779563355765983
 20
0.005952992833160087
 10
-0.20647919241788593
 20
0.01351058137047012
 10
0.03471750571077781
 20
0.02422747308711881
 10
0.2757483443782176
 20
0.03818414512856516
 10
0.5165637882659242
 20
0.05546212644988735
 10
0.7571107173525915
 20
0.07614381281119464
 10
0.9973322654223331
 20
0.10031225277968359
 10
1.2371676655996486
 20
0.12805090268654862
 10
1.4765521059939823
 20
0.15944334864666243
 10
1.7154165989472228
 20
0.19457299399139605
 10
1.9536878677884517
 20
0.23352271080296116
 10
2.1912882553969366
 20
0.27637445468445665
 10
2.428135659238968
 20
0.32320884246413284
 10
2.6641434978546092
 20
0.37410469322348017
 10
2.8992207140016646
 20
0.4291385338609581
 10
3.133271819787971
 20
0.4883840713556693
 10
3.3661969891089716
 20
0.5519116349702752
 10
3.5978922025244664
 20
0.6197875928140808
 10
3.828249449326323
 20
0.6920737484498292
 10
4.057156990941024
 20
0.7688267245353061
 10
4.284499688956828
 20
0.8500973417963311
 10
4.510159399953577
 20
0.9359300028737468
 10
4.734015437944912
 20
1.0263620917072296
 10
4.955945103633899
 20
1.1214234000405676
 10
5.175824277867663
 20
1.2211355932814518
 10
5.393528074706804
 20
1.3255117282514732
 10
5.608931547472044
 20
1.4345558352550332
 10
5.8219104390811305
 20
1.54826257633033
 10
6.030053382957269
 20
1.6651846110463175
 10
6.235673402086675
 20
1.7864883070471942
 10
6.438636856666982
 20
1.9121861584301811
 10
6.638809849195035
 20
2.042281606031441
 10
6.836059041749012
 20
2.176768600726132
 10
7.030252524259026
 20
2.315631250957058
 10
7.221260721080814
 20
2.458843567308975
 10
7.408957320941734
 20
2.6063693152510266
 10
7.593220213457487
 20
2.7581619848818906
 10
7.773932414058921
 20
2.9141648836928384
 10
7.950982958439438
 20
3.0743113551171835
 10
8.124267747620763
 20
3.238525122101981
 10
8.29369032548284
 20
3.406720751290309
 10
8.459162572107802
 20
3.5788042298276452
 10
8.620605298492977
 20
3.7546736434937187
 10
8.777948730989738
 20
3.934219941988103
 10
8.931132877078959
 20
4.117327774911897
 10
9.080107767626162
 20
4.303876380396983
 10
9.224833574381744
 20
4.493740507498315
 10
9.36528060482698
 20
4.686791353391939
 10
9.365280604827
 20
1.2700000000000002
 10
9.389683298714896
 20
1.022235291039517
 10
9.461953598537665
 20
0.7839920408963361
 10
9.579314197202766
 20
0.5644258040651056
 10
9.737254992720084
 20
0.3719743878930847
 10
9.929706408892104
 20
0.21403359237576747
 10
10.149272645723334
 20
0.09667299371066607
 10
10.387515895866516
 20
0.024402693887897398
 10
10.635280604826999
 20
0.0
 10
13.5460511776679
 20
0.0
 10
13.793815886628384
 20
0.024402693887897398
 10
14.032059136771565
 20
0.09667299371066607
 10
14.251625373602794
 20
0.21403359237576725
 10
14.444076789774815
 20
0.37197438789308446
 10
14.602017585292133
 20
0.5644258040651052
 10
14.719378183957234
 20
0.7839920408963352
 10
14.791648483780003
 20
1.0222352910395165
 10
14.8160511776679
 20
1.2699999999999996
 10
14.8160511776679
 20
9.14001163128817
  0
LWPOLYLINE
  5
30
330
17
100
AcDbEntity
  8
0
100
AcDbPolyline
 90
16
 70
1
 10
24.462917999418398
 20
10.1232553067752
 10
24.67410659622695
 20
10.22572959363077
 10
24.88243911468632
 20
10.333891225869806
 10
25.08765980538013
 20
10.44784566905604
 10
25.289501935612456
 20
10.567681684289553
 10
25.487689657174776
 20
10.693468467020594
 10
25.681940387318292
 20
10.825252835246028
 10
25.87196770532894
 20
10.963056585220952
 10
26.05748473704187
 20
11.106874146945342
 10
26.238207964690353
 20
11.256670678093434
 10
26.413861362298103
 20
11.412380731105042
 10
26.584180721082582
 20
11.57390761199837
 10
26.7489179994184
 20
11.741123520572799
 10
26.748917999418413
 20
5.392871432294628
 10
24.223711905026043
 20
10.01550454200232
 10
24.343724538498826
 20
10.068470645148436
  0
LWPOLYLINE
  5
31
330
17
100
AcDbEntity
  8
0
100
AcDbPolyline
 90
143
 70
1
 10
29.288917999404838
 20
16.6872511134367
 10
29.29500701901292
 20
16.93609892536658
 10
29.31325950397991
 20
17.184351128689343
 10
29.34363176761609
 20
17.431413540366414
 10
29.386051114961834
 20
17.67669482508426
 10
29.440416016780496
 20
17.91960791059495
 10
29.506596352565097
 20
18.159571392853216
 10
29.584433721977263
 20
18.39601092758688
 10
29.673741823972914
 20
18.628360604969934
 10
29.774306902707384
 20
18.856064304108106
 10
29.885888259152594
 20
19.0785770240949
 10
30.008218827201855
 20
19.2953661884524
 10
30.141005812883296
 20
19.505912919834564
 10
30.28393139515212
 20
19.709713281942175
 10
30.43665348658422
 20
19.906279485676897
 10
30.598806552150588
 20
20.095141056647563
 10
30.770002484112705
 20
20.27584596123429
 10
30.949831530944973
 20
20.447961688515306
 10
31.13786327806078
 20
20.61107628546682
 10
31.333647677994865
 20
20.76479934295829
 10
31.536716127576334
 20
20.908762930183165
 10
31.746582589514098
 20
21.04262247528848
 10
31.962744755710265
 20
21.166057590095644
 10
32.18468524951715
 20
21.27877283693844
 10
32.41187286406034
 20
21.380498435782833
 10
32.64376383366393
 20
21.470990909936116
 10
32.879803135334804
 20
21.550033668799934
 10
33.11942581719091
 20
21.617437526272372
 10
33.362058350654
 20
21.67304115355832
 10
33.60712000317043
 20
21.716711465304364
 10
33.854024228174296
 20
21.748343938133942
 10
34.1021800689664
 20
21.76786286082044
 10
34.35099357314853
 20
21.775221515499382
 10
34.599869214227986
 20
21.77040228948601
 10
34.848211316989534
 20
21.753416717430646
 10
35.09542548322342
 20
21.724305453710897
 10
35.340920014396836
 20
21.683138175126807
 10
35.58410732786386
 20
21.630013414131884
 10
35.82440536322412
 20
21.565058322999047
 10
36.06123897546419
 20
21.4884283694861
 10
36.294041311547225
 20
21.400306964729037
 10
36.52225516715605
 20
21.300905024253844
 10
36.745334320342344
 20
21.190460463157514
 10
36.962744838889975
 20
21.069237626666506
 10
37.1739663582632
 20
20.937526657435612
 10
37.37849332708116
 20
20.79564280110158
 10
37.57583621713754
 20
20.643925651753623
 10
37.76552269506941
 20
20.48273833912673
 10
37.94709875287068
 20
20.312466659463244
 10
38.12012979454458
 20
20.133518152122942
 10
38.28420167629406
 20
19.946321124151712
 10
38.43892169776062
 20
19.751323625143485
 10
38.583919541939004
 20
19.54899237484908
 10
38.7188481615181
 20
19.339811646098667
 10
38.84338460952666
 20
19.124282105711533
 10
38.95723081229563
 20
18.90291961616743
 10
39.060114282887184
 20
18.676254000907612
 10
39.15178877328277
 20
18.44482777622081
 10
39.23203486376914
 20
18.2091948527493
 10
39.30066048811186
 20
17.969919209723006
 10
39.35750139325922
 20
17.72757354509476
 10
39.40242153247613
 20
17.482737904807628
 10
39.435313390967345
 20
17.235998294475056
 10
39.45609824321034
 20
16.98794527679675
 10
39.464726341395725
 20
16.739172558067498
 10
39.488009693782196
 20
14.457641634176001
 10
39.50642869347896
 20
14.22232752563002
 10
39.55654027275343
 20
13.99167449865392
 10
39.637421438882846
 20
13.769930894019728
 10
39.747582461772346
 20
13.561180952063909
 10
39.884994312923304
 20
13.369269586079799
 10
40.04712603760489
 20
13.197731563815363
 10
40.230991371880165
 20
13.049726401464659
 10
40.43320374585928
 20
12.927980169324389
 10
40.65003866008844
 20
12.834735280982718
 10
40.87750228617964
 20
12.771709190860767
 10
41.111405028143
 20
12.740062760846536
 10
43.48809055748586
 20
12.715808341973752
 10
43.73686327621526
 20
12.707180243801941
 10
43.98491629389356
 20
12.686395391558946
 10
44.23165590422614
 20
12.653503533067733
 10
44.476491544513266
 20
12.608583393850818
 10
44.71883720914151
 20
12.55174248870346
 10
44.95811285216781
 20
12.483116864360733
 10
45.19374577563931
 20
12.402870773874369
 10
45.425172000326114
 20
12.311196283478788
 10
45.65183761558593
 20
12.208312812887225
 10
45.87320010513004
 20
12.094466610118253
 10
46.08872964551717
 20
11.969930162109698
 10
46.29791037426758
 20
11.835001542530602
 10
46.50024162456199
 20
11.690003698352218
 10
46.69523912357021
 20
11.535283676885655
 10
46.88243615154144
 20
11.371211795136174
 10
47.06138465888174
 20
11.198180753462275
 10
47.23165633854523
 20
11.016604695661004
 10
47.39284365117212
 20
10.826918217729139
 10
47.54456080052008
 20
10.629575327672754
 10
47.68644465685411
 20
10.425048358854799
 10
47.818155626085
 20
10.213826839481571
 10
47.93937846257601
 20
9.996416320933939
 10
48.04982302367234
 20
9.773337167747645
 10
48.149224964147535
 20
9.545123312138825
 10
48.237346368904596
 20
9.312320976055794
 10
48.313976322417545
 20
9.075487363815721
 10
48.37893141355038
 20
8.835189328455463
 10
48.4320561745453
 20
8.592002014988438
 10
48.47322345312939
 20
8.346507483815017
 10
48.50233471684914
 20
8.09929331758113
 10
48.51932028890451
 20
7.850951214819583
 10
48.52413951491788
 20
7.602075573740134
 10
48.51678086023894
 20
7.353262069557999
 10
48.49726193755244
 20
7.105106228765896
 10
48.46562946472286
 20
6.8582020037620275
 10
48.42195915297682
 20
6.613140351245604
 10
48.366355525690864
 20
6.370507817782508
 10
48.29895166821843
 20
6.130885135926403
 10
48.21990890935461
 20
5.89484583425553
 10
48.12941643520133
 20
5.662954864651941
 10
48.02769083635694
 20
5.435767250108752
 10
47.914975589514135
 20
5.2138267563018665
 10
47.79154047470698
 20
4.9976645901057
 10
47.65768092960166
 20
4.787798128167934
 10
47.513717342376786
 20
4.5847296785864655
 10
47.35999428488531
 20
4.38894527865238
 10
47.1968796879338
 20
4.200913531536577
 10
47.024763960652784
 20
4.021084484704305
 10
46.84405905606606
 20
3.84988855274219
 10
46.6551974850954
 20
3.687735487175824
 10
46.458631281360674
 20
3.535013395743725
 10
46.25483091925306
 20
3.392087813474901
 10
46.04428418787089
 20
3.2593008277934565
 10
45.8274950235134
 20
3.136970259744201
 10
45.604982303526604
 20
3.0253889032989862
 10
45.37727860438844
 20
2.924823824564518
 10
45.144928927005374
 20
2.835515722568865
 10
44.90848939227171
 20
2.7576783531567015
 10
44.66852591001345
 20
2.6914980173720995
 10
44.42561282450276
 20
2.6371331155534357
 10
44.180331539784916
 20
2.59471376820769
 10
43.93326912810784
 20
2.5643415045715123
 10
43.68501692478508
 20
2.5460890196045227
 10
43.436169112855204
 20
2.5399999999999983
 10
29.288917999418395
 20
2.539999999999999
  0
LWPOLYLINE
  5
32
330
17
100
AcDbEntity
  8
0
100
AcDbPolyline
 90
107
 70
1
 10
-1.1577348066298399
 20
4.66971503343995
 10
-4.61986042454202
 20
4.6697150334399495
 10
-4.61986042454202
 20
21.1106571677813
 10
-1.1466560046525198
 20
21.1106571677813
 10
-0.8999158792155377
 20
21.10838719526155
 10
-0.6532638621650899
 20
21.101426967399966
 10
-0.406800449601322
 20
21.089542188250853
 10
-0.160641243919176
 20
21.072486870418686
 10
0.08508115074285616
 20
21.050003655239752
 10
0.33021508899869634
 20
21.021824456474135
 10
0.5745877284302594
 20
20.987671511598016
 10
0.8180028040288518
 20
20.947258935928485
 10
1.0602384035681176
 20
20.900294883451632
 10
1.301044844609236
 20
20.84648442191872
 10
1.540142789249713
 20
20.78553322525538
 10
1.7772217720079342
 20
20.717152169546925
 10
2.0119393561379106
 20
20.641062885295014
 10
2.2439211687273564
 20
20.557004263965123
 10
2.472762087182327
 20
20.464739838106897
 10
2.6980288489262594
 20
20.364065851610103
 10
2.9192643210235403
 20
20.2548197150334
 10
3.1366536402768186
 20
20.13593718657866
 10
3.3484682329791564
 20
20.007386684784194
 10
3.5541399939942306
 20
19.869222412286693
 10
3.7531239183612293
 20
19.721589925358778
 10
3.944914642939575
 20
19.564726514661086
 10
4.129062125523762
 20
19.398957013038903
 10
4.30518511480305
 20
19.224685158255326
 10
4.472981261530588
 20
19.04238116502107
 10
4.632233108859968
 20
18.852566591119054
 10
4.782809698324086
 20
18.655797829726207
 10
4.92466403181843
 20
18.452649586842078
 10
5.057827041579532
 20
18.24369952902436
 10
5.182398977310218
 20
18.029514976287686
 10
5.298539206504735
 20
17.81064214990791
 10
5.406455364931659
 20
17.5875981389939
 10
5.5028033563557885
 20
17.368880579925992
 10
5.591648489853933
 20
17.147007952432126
 10
5.67330630047567
 20
16.92238942389765
 10
5.7480986969264825
 20
16.695391437803295
 10
5.816347700309238
 20
16.4663400976487
 10
5.878370624511381
 20
16.23552414240075
 10
5.9344765054225155
 20
16.003198210862756
 10
5.984963573530516
 20
15.769586175645946
 10
6.030117572486832
 20
15.534884396821154
 10
6.0702107457938554
 20
15.299264799799925
 10
6.105501338393814
 20
15.062877722706055
 10
6.136233485471
 20
14.825854507603923
 10
6.162637384796374
 20
14.588309829841336
 10
6.184929670232707
 20
14.350343772670502
 10
6.203313922143171
 20
14.11204366212
 10
6.217981265431404
 20
13.873485681309004
 10
6.229111018056182
 20
13.634736285171456
 10
6.236871362485101
 20
13.39585343673891
 10
6.241420020079755
 20
13.156887685322044
 10
6.24290491421924
 20
12.9178831055539
 10
6.241428188646544
 20
12.67724332436935
 10
6.236903690494982
 20
12.436641702219376
 10
6.229182816152908
 20
12.196121604682437
 10
6.218106914224165
 20
11.95573283464569
 10
6.203506571510408
 20
11.715532581570764
 10
6.185200878597477
 20
11.475586515237783
 10
6.162996687917817
 20
11.23597004471555
 10
6.1366878829464415
 20
10.996769765188041
 10
6.106054684786818
 20
10.75808511669465
 10
6.070863032256956
 20
10.520030279401768
 10
6.030864084184163
 20
10.282736329106148
 10
5.985793908457401
 20
10.046353673403106
 10
5.935373441899254
 20
9.811054782118529
 10
5.879308828431455
 20
9.577037213564644
 10
5.817292270117039
 20
9.344526918815385
 10
5.749003555495213
 20
9.113781776906595
 10
5.67411245994641
 20
8.885095271698706
 10
5.592282239494925
 20
8.65880016316669
 10
5.503174455691754
 20
8.43527192996115
 10
5.406455364931659
 20
8.21493166618203
 10
5.298390974622873
 20
7.9909328266184705
 10
5.182057849230935
 20
7.77111623245515
 10
5.057250701786758
 20
7.555999447649882
 10
4.923813087800553
 20
7.346128569809417
 10
4.7816481618825675
 20
7.142070078938207
 10
4.630728727108793
 20
6.944400002173177
 10
4.4711056448789375
 20
6.753690579315115
 10
4.302913624299015
 20
6.570494956775875
 10
4.126373507163803
 20
6.395330794453912
 10
3.9417904286800294
 20
6.228663967641173
 10
3.7495476465554067
 20
6.070893704935867
 10
3.5500963284001568
 20
5.922340463245969
 10
3.343942072892013
 20
5.783237586293732
 10
3.131629311556049
 20
5.653727363397445
 10
2.9137249200348903
 20
5.53386158767084
 10
2.6923720710965435
 20
5.423833781378598
 10
2.4669625596134406
 20
5.322373215121818
 10
2.2379490973074194
 20
5.229330018811883
 10
2.0057624526570006
 20
5.144512130268667
 10
1.77080690747236
 20
5.067693482426262
 10
1.5334573431693677
 20
4.99862192471021
 10
1.29405775010755
 20
4.9370265560629685
 10
1.0529209095103738
 20
4.882624264125107
 10
0.8103289883431044
 20
4.835125367183151
 10
0.5665348028039863
 20
4.794238336281985
 10
0.32176353597217333
 20
4.759673633054158
 10
0.07621473164560166
 20
4.7311467363305475
 10
-0.16993557625171007
 20
4.708380451150431
 10
-0.4165327047264604
 20
4.691106601558346
 10
-0.6634412093443971
 20
4.679067207472265
 10
-0.9105428699486626
 20
4.672015239205399
  0
LWPOLYLINE
  5
33
330
17
100
AcDbEntity
  8
0
100
AcDbPolyline
 90
107
 70
1
 10
-20.5936464088398
 20
4.66971503343995
 10
-24.055772026752
 20
4.6697150334399495
 10
-24.055772026752
 20
21.1106571677813
 10
-20.5825676068625
 20
21.1106571677813
 10
-20.335827481425518
 20
21.10838719526155
 10
-20.089175464375067
 20
21.101426967399966
 10
-19.842712051811297
 20
21.089542188250856
 10
-19.596552846129146
 20
21.07248687041869
 10
-19.35083045146711
 20
21.050003655239752
 10
-19.10569651321127
 20
21.02182445647414
 10
-18.861323873779703
 20
20.987671511598016
 10
-18.61790879818111
 20
20.947258935928488
 10
-18.37567319864184
 20
20.900294883451636
 10
-18.13486675760072
 20
20.846484421918724
 10
-17.89576881296024
 20
20.785533225255385
 10
-17.658689830202018
 20
20.717152169546928
 10
-17.42397224607204
 20
20.641062885295018
 10
-17.19199043348259
 20
20.557004263965126
 10
-16.963149515027617
 20
20.4647398381069
 10
-16.737882753283685
 20
20.364065851610107
 10
-16.5166472811864
 20
20.2548197150334
 10
-16.299257961933126
 20
20.135937186578655
 10
-16.08744336923079
 20
20.00738668478419
 10
-15.881771608215718
 20
19.86922241228669
 10
-15.682787683848721
 20
19.72158992535877
 10
-15.490996959270378
 20
19.56472651466108
 10
-15.306849476686192
 20
19.398957013038896
 10
-15.130726487406907
 20
19.22468515825532
 10
-14.962930340679371
 20
19.042381165021062
 10
-14.803678493349992
 20
18.852566591119047
 10
-14.653101903885876
 20
18.6557978297262
 10
-14.511247570391532
 20
18.45264958684207
 10
-14.37808456063043
 20
18.243699529024354
 10
-14.253512624899743
 20
18.029514976287683
 10
-14.137372395705226
 20
17.810642149907906
 10
-14.0294562372783
 20
17.5875981389939
 10
-13.933108245854168
 20
17.36888057992599
 10
-13.844263112356021
 20
17.147007952432123
 10
-13.762605301734283
 20
16.92238942389765
 10
-13.687812905283469
 20
16.695391437803295
 10
-13.619563901900712
 20
16.4663400976487
 10
-13.557540977698569
 20
16.235524142400752
 10
-13.501435096787432
 20
16.003198210862756
 10
-13.45094802867943
 20
15.769586175645946
 10
-13.405794029723113
 20
15.534884396821155
 10
-13.365700856416089
 20
15.299264799799927
 10
-13.330410263816129
 20
15.062877722706055
 10
-13.299678116738942
 20
14.825854507603925
 10
-13.273274217413569
 20
14.588309829841338
 10
-13.250981931977234
 20
14.350343772670502
 10
-13.23259768006677
 20
14.112043662120001
 10
-13.217930336778537
 20
13.873485681309004
 10
-13.206800584153758
 20
13.634736285171456
 10
-13.19904023972484
 20
13.39585343673891
 10
-13.194491582130185
 20
13.156887685322044
 10
-13.1930066879907
 20
12.9178831055539
 10
-13.194483413563395
 20
12.67724332436935
 10
-13.199007911714958
 20
12.436641702219376
 10
-13.206728786057033
 20
12.196121604682437
 10
-13.217804687985774
 20
11.955732834645687
 10
-13.232405030699534
 20
11.715532581570764
 10
-13.250710723612464
 20
11.475586515237781
 10
-13.272914914292125
 20
11.23597004471555
 10
-13.299223719263502
 20
10.99676976518804
 10
-13.329856917423125
 20
10.758085116694648
 10
-13.365048569952988
 20
10.520030279401766
 10
-13.405047518025782
 20
10.282736329106147
 10
-13.450117693752544
 20
10.046353673403104
 10
-13.500538160310693
 20
9.811054782118525
 10
-13.556602773778494
 20
9.57703721356464
 10
-13.61861933209291
 20
9.344526918815383
 10
-13.68690804671474
 20
9.113781776906592
 10
-13.761799142263543
 20
8.885095271698706
 10
-13.843629362715031
 20
8.658800163166688
 10
-13.932737146518203
 20
8.43527192996115
 10
-14.0294562372783
 20
8.21493166618203
 10
-14.137520627587087
 20
7.990932826618475
 10
-14.253853752979024
 20
7.7711162324551575
 10
-14.378660900423199
 20
7.555999447649894
 10
-14.5120985144094
 20
7.346128569809431
 10
-14.654263440327382
 20
7.1420700789382225
 10
-14.805182875101153
 20
6.944400002173194
 10
-14.964805957331004
 20
6.753690579315132
 10
-15.13299797791092
 20
6.5704949567758915
 10
-15.309538095046126
 20
6.395330794453928
 10
-15.494121173529892
 20
6.228663967641187
 10
-15.686363955654508
 20
6.070893704935879
 10
-15.885815273809753
 20
5.922340463245979
 10
-16.09196952931789
 20
5.783237586293739
 10
-16.30428229065385
 20
5.653727363397448
 10
-16.522186682175
 20
5.53386158767084
 10
-16.743539531113353
 20
5.4238337813785975
 10
-16.96894904259646
 20
5.322373215121816
 10
-17.197962504902485
 20
5.229330018811879
 10
-17.430149149552907
 20
5.144512130268663
 10
-17.66510469473755
 20
5.067693482426258
 10
-17.90245425904055
 20
4.998621924710207
 10
-18.141853852102372
 20
4.937026556062966
 10
-18.38299069269955
 20
4.882624264125105
 10
-18.625582613866822
 20
4.835125367183149
 10
-18.869376799405945
 20
4.794238336281984
 10
-19.11414806623776
 20
4.759673633054157
 10
-19.35969687056434
 20
4.731146736330547
 10
-19.605847178461655
 20
4.708380451150431
 10
-19.85244430693641
 20
4.691106601558346
 10
-20.099352811554347
 20
4.679067207472265
 10
-20.34645447215862
 20
4.672015239205399
  0
LWPOLYLINE
  5
34
330
17
100
AcDbEntity
  8
0
100
AcDbPolyline
 90
62
 70
1
 10
18.5163710380924
 20
13.5216778133178
 10
14.8160511776679
 20
13.5216778133178
 10
14.8160511776679
 20
21.3266938063391
 10
18.4886740331492
 20
21.3266938063391
 10
18.731459428273723
 20
21.323882026679875
 10
18.974102536096463
 20
21.315135680685582
 10
19.216426665048647
 20
21.299949793447666
 10
19.458208975563924
 20
21.277764247227008
 10
19.69916890828985
 20
21.247959463894148
 10
19.938953965711885
 20
21.209853365642797
 10
20.177122556506866
 20
21.162700776333565
 10
20.413123877549996
 20
21.105696988566795
 10
20.646275368191077
 20
21.037987918926405
 10
20.875739287673746
 20
20.95869000766766
 10
21.100501599302103
 20
20.8669235242803
 10
21.309483629730483
 20
20.76741982729404
 10
21.512303352747416
 20
20.655901989831612
 10
21.707703444841275
 20
20.53185228971815
 10
21.894313167499533
 20
20.394944222119534
 10
22.070706093133165
 20
20.245110034954596
 10
22.235484880906025
 20
20.08259554305922
 10
22.38738491104532
 20
19.90798622706111
 10
22.525379461727816
 20
19.722192060010048
 10
22.6487641756325
 20
19.5263884850247
 10
22.754673104619307
 20
19.3278131348873
 10
22.846986782899084
 20
19.122560278849207
 10
22.925974879092024
 20
18.911815545849212
 10
22.992115218690632
 20
18.69668791777921
 10
23.04603504758414
 20
18.47817244602756
 10
23.088454517604042
 20
18.257132354839122
 10
23.120138525121483
 20
18.034296445897645
 10
23.141859428123404
 20
17.810266753024354
 10
23.154370564801418
 20
17.585531893841527
 10
23.158389066589102
 20
17.3604826984589
 10
23.1534444997164
 20
17.11455936802624
 10
23.13797029219415
 20
16.869077140047246
 10
23.110951880455467
 20
16.62460043900745
 10
23.071319699934733
 20
16.38185444465782
 10
23.017983727346696
 20
16.141753063700268
 10
22.949888267243033
 20
15.905420392872873
 10
22.866089569734584
 20
15.674196640922213
 10
22.76585377596671
 20
15.449617013515784
 10
22.6487641756325
 20
15.233352718813599
 10
22.52557541730942
 20
15.042882353525831
 10
22.387909954347347
 20
14.862600135165847
 10
22.236479551943773
 20
14.693714737379013
 10
22.0723326751544
 20
14.537157417284536
 10
21.896765549571978
 20
14.393517828342633
 10
21.711210196251482
 20
14.263027728454265
 10
21.51712413743097
 20
14.145589932722006
 10
21.315900977343098
 20
14.040838424420345
 10
21.1088107007851
 20
13.948211689444602
 10
20.88428521067971
 20
13.86253668290431
 10
20.655571636543883
 20
13.788749174812768
 10
20.423606109904945
 20
13.725910951786298
 10
20.189147070623672
 20
13.673115428388202
 10
19.95280308175617
 20
13.629510896797777
 10
19.7150594712692
 20
13.594311956528259
 10
19.47630188265615
 20
13.566803144175628
 10
19.236836138884765
 20
13.546337776418115
 10
18.99690452113411
 20
13.532334095753292
 10
18.756698873363153
 20
13.524270086634264
  0
ENDSEC
  0
SECTION
  2
OBJECTS
  0
DICTIONARY
  5
A
330
0
100
AcDbDictionary
281
1
  3
ACAD_COLOR
350
B
  3
ACAD_GROUP
350
C
  3
ACAD_LAYOUT
350
D
  3
ACAD_MATERIAL
350
E
  3
ACAD_MLEADERSTYLE
350
F
  3
ACAD_MLINESTYLE
350
10
  3
ACAD_PLOTSETTINGS
350
11
  3
ACAD_PLOTSTYLENAME
350
12
  3
ACAD_SCALELIST
350
14
  3
ACAD_TABLESTYLE
350
15
  3
ACAD_VISUALSTYLE
350
16
  3
EZDXF_META
350
2D
  0
DICTIONARY
  5
B
330
A
100
AcDbDictionary
281
1
  0
DICTIONARY
  5
C
330
A
100
AcDbDictionary
281
1
  0
DICTIONARY
  5
D
330
A
100
AcDbDictionary
281
1
  3
Model
350
1A
  3
Layout1
350
1E
  0
DICTIONARY
  5
E
330
A
100
AcDbDictionary
281
1
  3
ByBlock
350
1F
  3
ByLayer
350
20
  3
Global
350
21
  0
DICTIONARY
  5
F
330
A
100
AcDbDictionary
281
1
  3
Standard
350
2C
  0
DICTIONARY
  5
10
330
A
100
AcDbDictionary
281
1
  3
Standard
350
22
  0
DICTIONARY
  5
11
330
A
100
AcDbDictionary
281
1
  0
ACDBDICTIONARYWDFLT
  5
12
330
A
100
AcDbDictionary
281
1
  3
Normal
350
13
100
AcDbDictionaryWithDefault
340
13
  0
ACDBPLACEHOLDER
  5
13
330
12
  0
DICTIONARY
  5
14
330
A
100
AcDbDictionary
281
1
  0
DICTIONARY
  5
15
330
A
100
AcDbDictionary
281
1
  0
DICTIONARY
  5
16
330
A
100
AcDbDictionary
281
1
  0
LAYOUT
  5
1A
330
D
100
AcDbPlotSettings
  1

  4
A3
  6

 40
7.5
 41
20.0
 42
7.5
 43
20.0
 44
420.0
 45
297.0
 46
0.0
 47
0.0
 48
0.0
 49
0.0
140
0.0
141
0.0
142
1.0
143
1.0
 70
1024
 72
1
 73
0
 74
5
  7

 75
16
 76
0
 77
2
 78
300
147
1.0
148
0.0
149
0.0
100
AcDbLayout
  1
Model
 70
1
 71
0
 10
0.0
 20
0.0
 11
420.0
 21
297.0
 12
0.0
 22
0.0
 32
0.0
 14
1e+20
 24
1e+20
 34
1e+20
 15
-1e+20
 25
-1e+20
 35
-1e+20
146
0.0
 13
0.0
 23
0.0
 33
0.0
 16
1.0
 26
0.0
 36
0.0
 17
0.0
 27
1.0
 37
0.0
 76
1
330
17
  0
LAYOUT
  5
1E
330
D
100
AcDbPlotSettings
  1

  4
A3
  6

 40
7.5
 41
20.0
 42
7.5
 43
20.0
 44
420.0
 45
297.0
 46
0.0
 47
0.0
 48
0.0
 49
0.0
140
0.0
141
0.0
142
1.0
143
1.0
 70
0
 72
1
 73
0
 74
5
  7

 75
16
 76
0
 77
2
 78
300
147
1.0
148
0.0
149
0.0
100
AcDbLayout
  1
Layout1
 70
1
 71
1
 10
0.0
 20
0.0
 11
420.0
 21
297.0
 12
0.0
 22
0.0
 32
0.0
 14
1e+20
 24
1e+20
 34
1e+20
 15
-1e+20
 25
-1e+20
 35
-1e+20
146
0.0
 13
0.0
 23
0.0
 33
0.0
 16
1.0
 26
0.0
 36
0.0
 17
0.0
 27
1.0
 37
0.0
 76
1
330
1B
  0
MATERIAL
  5
1F
102
{ACAD_REACTORS
330
E
102
}
330
E
100
AcDbMaterial
  1
ByBlock
  2

 70
0
 40
1.0
 71
1
 41
1.0
 91
-1023410177
 42
1.0
 72
1
  3

 73
1
 74
1
 75
1
 44
0.5
 73
0
 45
1.0
 46
1.0
 77
1
  4

 78
1
 79
1
170
1
 48
1.0
171
1
  6

172
1
173
1
174
1
140
1.0
141
1.0
175
1
  7

176
1
177
1
178
1
143
1.0
179
1
  8

270
1
271
1
272
1
145
1.0
146
1.0
273
1
  9

274
1
275
1
276
1
 42
1.0
 72
1
  3

 73
1
 74
1
 75
1
 94
63
  0
MATERIAL
  5
20
102
{ACAD_REACTORS
330
E
102
}
330
E
100
AcDbMaterial
  1
ByLayer
  2

 70
0
 40
1.0
 71
1
 41
1.0
 91
-1023410177
 42
1.0
 72
1
  3

 73
1
 74
1
 75
1
 44
0.5
 73
0
 45
1.0
 46
1.0
 77
1
  4

 78
1
 79
1
170
1
 48
1.0
171
1
  6

172
1
173
1
174
1
140
1.0
141
1.0
175
1
  7

176
1
177
1
178
1
143
1.0
179
1
  8

270
1
271
1
272
1
145
1.0
146
1.0
273
1
  9

274
1
275
1
276
1
 42
1.0
 72
1
  3

 73
1
 74
1
 75
1
 94
63
  0
MATERIAL
  5
21
102
{ACAD_REACTORS
330
E
102
}
330
E
100
AcDbMaterial
  1
Global
  2

 70
0
 40
1.0
 71
1
 41
1.0
 91
-1023410177
 42
1.0
 72
1
  3

 73
1
 74
1
 75
1
 44
0.5
 73
0
 45
1.0
 46
1.0
 77
1
  4

 78
1
 79
1
170
1
 48
1.0
171
1
  6

172
1
173
1
174
1
140
1.0
141
1.0
175
1
  7

176
1
177
1
178
1
143
1.0
179
1
  8

270
1
271
1
272
1
145
1.0
146
1.0
273
1
  9

274
1
275
1
276
1
 42
1.0
 72
1
  3

 73
1
 74
1
 75
1
 94
63
  0
MLINESTYLE
  5
22
102
{ACAD_REACTORS
330
10
102
}
330
10
100
AcDbMlineStyle
  2
Standard
 70
0
  3

 62
256
 51
90.0
 52
90.0
 71
2
 49
0.5
 62
256
  6
BYLAYER
 49
-0.5
 62
256
  6
BYLAYER
  0
MLEADERSTYLE
  5
2C
102
{ACAD_REACTORS
330
F
102
}
330
F
100
AcDbMLeaderStyle
179
2
170
2
171
1
172
0
 90
2
 40
0.0
 41
0.0
173
1
 91
-1056964608
 92
-2
290
1
 42
2.0
291
1
 43
8.0
  3
Standard
 44
4.0
300

342
29
174
1
175
1
176
0
178
1
 93
-1056964608
 45
4.0
292
0
297
0
 46
4.0
 94
-1056964608
 47
1.0
 49
1.0
140
1.0
294
1
141
0.0
177
0
142
1.0
295
0
296
0
143
3.75
271
0
272
9
273
9
  0
DICTIONARY
  5
2D
330
A
100
AcDbDictionary
280
1
281
1
  3
CREATED_BY_EZDXF
350
2E
  3
WRITTEN_BY_EZDXF
350
37
  0
DICTIONARYVAR
  5
2E
330
2D
100
DictionaryVariables
280
0
  1
1.4.4 @ 2026-09-18T17:03:29.439207+00:00
  0
DICTIONARYVAR
  5
37
330
2D
100
DictionaryVariables
280
0
  1
1.4.4 @ 2026-09-18T17:03:29.444092+00:00
  0
ENDSEC
  0
EOF
